<svg width="16" height="16" viewBox="0 0 16 16" fill="none" xmlns="http://www.w3.org/2000/svg">
<g clip-path="url(#clip0_1620_1302)">
<circle cx="8" cy="8" r="6" stroke="#696969" stroke-width="2"/>
<circle cx="8" cy="8.09998" r="1.75" stroke="#696969" stroke-width="1.5"/>
<path d="M8.85374 0H7.7002V6.57523H8.85374V0Z" fill="#696969"/>
<path d="M2.00059 2.62605L1.34473 3.43597L6.57067 7.66786L7.22653 6.85793L2.00059 2.62605Z" fill="#696969"/>
<path d="M0.169305 9.50702L0.385986 10.5264L6.63734 9.19766L6.42066 8.17826L0.169305 9.50702Z" fill="#696969"/>
<path d="M4.11265 15.2327L5.04126 15.7058L7.89107 10.1127L6.96246 9.63958L4.11265 15.2327Z" fill="#696969"/>
<path d="M10.9207 15.7874L11.8728 15.3635L9.36456 9.72992L8.41248 10.1538L10.9207 15.7874Z" fill="#696969"/>
<path d="M15.7303 10.9424L16 9.93573L10.0095 8.33059L9.7398 9.33728L15.7303 10.9424Z" fill="#696969"/>
<path d="M15.1719 3.99274L14.5593 3.1496L9.32867 6.94989L9.94125 7.79303L15.1719 3.99274Z" fill="#696969"/>
</g>
<defs>
<clipPath id="clip0_1620_1302">
<rect width="16" height="16" fill="white"/>
</clipPath>
</defs>
</svg>
