<svg width="16px" height="16px"  xmlns="http://www.w3.org/2000/svg"><path d="M15.8761898,9 C15.3840327,12.9461027 12.0174371,16 7.93809492,16 C3.85875274,16 0.492157115,12.9461027 2.66453526e-15,9 L2.02138408,9 C2.49867955,11.8345187 4.96973109,14 7.93809492,14 C10.9064588,14 13.3775103,11.8345187 13.8548058,9 L15.8761898,9 L15.8761898,9 Z M11.7610733,3.3785574 L9.67035064,6.99968909 C9.840632,7.29393271 9.93809492,7.63558451 9.93809492,8 C9.93809492,9.1045695 9.04266442,10 7.93809492,10 C6.83352542,10 5.93809492,9.1045695 5.93809492,8 C5.93809492,6.8954305 6.83352542,6 7.93809492,6 L7.93811955,6 L10.0304126,2.37614981 C9.37869178,2.1329735 8.67366233,2 7.93809492,2 C4.96973109,2 2.49867955,4.16548125 2.02138408,7 L2.66453526e-15,7 C0.492157115,3.05389732 3.85875274,0 7.93809492,0 C12.0174371,0 15.3840327,3.05389732 15.8761898,7 L13.8548058,7 C13.6109169,5.55161497 12.8464553,4.27791665 11.7610733,3.3785574 Z" fill="#696969"/></svg>