<svg width="16px" height="16px"  xmlns="http://www.w3.org/2000/svg" xmlns:xlink="http://www.w3.org/1999/xlink"><defs><path id="a" d="M9,3h2c0,2.2-1.8,4-4,4S3,5.2,3,3h2c0,1.1,0.9,2,2,2S9,4.1,9,3z M9,3h2c0,2.2-1.8,4-4,4S3,5.2,3,3h2 c0,1.1,0.9,2,2,2S9,4.1,9,3z M9,13h4v-2H9V13z M7,8h3l1,1h4v6H7V8z M6,12v2H0V0h14v8h-2V2H2v10H6z"/></defs><clipPath id="b"><use xlink:href="#a" overflow="visible"/></clipPath><g clip-path="url(#b)"><defs><path id="c" d="M-1 -1H15V15H-1z"/></defs><clipPath id="d"><use xlink:href="#c" overflow="visible"/></clipPath><path clip-path="url(#d)" fill="#696969" d="M-5 -5H20V20H-5z"/></g></svg>