<svg width="32px" height="32px"  xmlns="http://www.w3.org/2000/svg"><path fill-rule="evenodd" clip-rule="evenodd" fill="#696969" d="M28.022,22.84l-12,6.856l-12-6.856V9.161l12-6.857l12,6.857 V9.142l2-1.142l-14-8l-14,8v16l14,8l14-8V12l-2,1.142V22.84z M23.022,10H9.053v2h13.969V10z M23.022,15H9.053v2h13.969V15z M9.053,22h3.969v-2H9.053V22z M22.171,22.357l1.465-1.36l-2.953-2.832l-0.703,0.652l-0.004-0.005l-3.032,2.789L15.533,20.1 l-1.486,1.338l2.793,2.975l1.486-1.338l-0.027-0.03l2.342-2.154L22.171,22.357z"/></svg>